<svg xmlns="http://www.w3.org/2000/svg" viewBox="0 0 24 24" height="16px" width="16px"><path fill-rule="evenodd" fill="#00c578" d="M4.076 10l7.976.001c.588.576 1.38.946 2.256.994L14.5 11h6.333l.29.496A1 1 0 0120.259 13H19v3a2 2 0 01-2 2h-2v3H7v-6.4C5.45 13.514 4.364 11.878 4.076 10zM20 5a1 1 0 011 1v3a1 1 0 01-1 1h-1V5h1zm-8.663 4.001L4 9h-.5a.5.5 0 01-.5-.5v-1a.5.5 0 01.5-.5h.81c.922-2.891 3.792-5 7.19-5 2.044 0 3.896.763 5.249 2H14.5a3.5 3.5 0 00-3.465 3h1.015a2.5 2.5 0 012.45-2H18v5h-3.5a2.496 2.496 0 01-2-.999h-1.163z"/></svg>